# xmcd
#
# Track frame offsets:
#	150
#	24351
#	43071
#	62183
#	74298
#	94906
#	113534
#	131388
#	144904
#	159762
#	171945
#	192630
#	213967
#	228832
#
# Disc length: 3489 seconds
#
# Revision: 1
# Processed by: cddbd v1.5.2PL0 Copyright (c) Steve Scherf et al.
# Submitted via: EZCDAudioConverter 2.1.7.1
#
DISCID=b90d9f0e
DTITLE=V/A - Polish Funk V3
DYEAR=1900
DGENRE=
TTITLE0=Grupa Bluesowa Stowdoła - Złoto Stu Słońc (Gold Of 100 Suns)
TTITLE1=Gramine - Osiem Koni Albo Czterdziestu Ludzi (Eight Horses Or Forty Pe
TTITLE1=ople)
TTITLE2=Stan Borys - Szukam Przyjaciela (I'm Looking For A Friend)
TTITLE3=Poznańska Orkiestra PRiTV - Strit
TTITLE4=Alex Band - Zbiegowisko (Crowd)
TTITLE5=Alibabki - Była Sobie Para (Once Was A Couple)
TTITLE6=Bogdan Gajkowski - Nie Żal Mi Takich Dni (I Don't Regret Those Days)
TTITLE7=Andrzej Zaucha I Dżamble - Opuść Sny Moje (Abandon My Dreams)
TTITLE8=Andrzej Dąbrowski - Powrót (Return)
TTITLE9=Novi - Torpedo
TTITLE10=Alex Band - Ajoka
TTITLE11=Laboratorium - Funky Dla Franki (Funky For Franka)
TTITLE12=Bemibem - Nigdy W Życiu Nie Jest Tak (Life's Never What-It-Is)
TTITLE13=Chorus and Disco Company - Discoland
EXTD=
EXTT0=
EXTT1=
EXTT2=
EXTT3=
EXTT4=
EXTT5=
EXTT6=
EXTT7=
EXTT8=
EXTT9=
EXTT10=
EXTT11=
EXTT12=
EXTT13=
PLAYORDER=
